<svg width="136" height="63" viewBox="0 0 136 63" fill="none" xmlns="http://www.w3.org/2000/svg">
<g filter="url(#filter0_d)">
<path d="M29.136 17.0027C29.0207 14.697 28.496 12.5063 27.5617 10.4305C26.6275 8.35476 25.2565 6.65755 23.4488 5.33894C21.6411 4.02033 19.3214 3.34339 16.4896 3.30813C13.5138 3.27107 11.2235 4.08262 9.61872 5.74277C8.01393 7.40292 7.19748 9.3609 7.16939 11.6167C7.14429 13.6326 7.69903 15.3436 8.83361 16.7498C9.96878 18.1081 11.4417 19.3265 13.2524 20.4052C15.1117 21.4364 17.0673 22.4448 19.1192 23.4304C20.9329 24.2691 22.7457 25.1797 24.5576 26.1624C26.3701 27.097 28.0129 28.1735 29.4858 29.392C30.9587 30.6104 32.1167 32.0649 32.9597 33.7556C33.8513 35.3988 34.2828 37.3723 34.2541 39.6761C34.2045 43.6598 32.6997 46.9294 29.7396 49.4847C26.7802 51.992 22.6127 53.2122 17.2371 53.1453C15.0772 53.1184 12.8493 52.7786 10.5533 52.126C8.2572 51.4734 6.22872 50.536 4.46779 49.314L4.78922 52.4143L1.04551 52.3676L0.804497 37.0274L3.61228 37.0624C3.79967 41.2891 5.22351 44.523 7.88381 46.7643C10.5447 48.9577 13.771 50.0779 17.5627 50.1251C19.4346 50.1484 21.1666 49.834 22.7589 49.1818C24.3517 48.4815 25.6125 47.4652 26.5411 46.1326C27.5178 44.8007 28.0181 43.1748 28.042 41.2549C28.0689 39.0951 27.5153 37.2881 26.3813 35.8338C25.2474 34.3796 23.775 33.1132 21.9643 32.0345C20.1536 30.9559 18.2223 29.9238 16.1704 28.9381C14.3567 28.0995 12.5676 27.2132 10.8031 26.2791C9.0386 25.3451 7.41958 24.2928 5.94603 23.1224C4.52109 21.9045 3.36281 20.474 2.4712 18.8308C1.62759 17.1882 1.22013 15.2149 1.24882 12.9111C1.26436 11.6632 1.49707 10.322 1.94697 8.88749C2.39687 7.45298 3.15784 6.09435 4.2299 4.8116C5.35055 3.48145 6.85188 2.42006 8.7339 1.62743C10.6645 0.787407 13.0937 0.385623 16.0215 0.422081C17.8453 0.444793 19.8819 0.734173 22.1311 1.29022C24.429 1.79887 26.5529 2.78539 28.5028 4.24979L28.2533 1.15044L31.9251 1.19617L31.7278 17.0349L29.136 17.0027ZM54.1359 53.6048C51.5441 53.5725 49.3662 53.0654 47.6023 52.0833C45.8864 51.1019 44.5869 49.4536 43.7036 47.1384C42.8684 44.8238 42.4752 41.6987 42.5243 37.763L42.6838 24.948C42.6934 24.18 42.703 23.4121 42.7125 22.6441C42.7701 21.8768 42.8759 21.0861 43.0301 20.2719C42.2136 20.3098 41.373 20.3473 40.5085 20.3845C39.6926 20.3744 38.8763 20.3882 38.0598 20.426L38.0965 17.4743L40.3284 17.5021C42.3922 17.5278 43.8825 17.3543 44.7992 16.9817C45.7645 16.5617 46.5141 16.115 47.0481 15.6416L49.1359 15.6676L48.8625 37.6259C48.8111 41.7536 49.3485 44.8565 50.4747 46.9347C51.6495 48.9655 53.6531 49.9745 56.4854 49.9618C58.3099 49.9365 60.0446 49.406 61.6897 48.3704C63.3833 47.2874 64.7433 46.0083 65.7698 44.5329L66.0002 26.0304C66.0145 24.8785 66.0508 23.8948 66.1089 23.0795C66.1677 22.2162 66.2741 21.3774 66.4283 20.5633C65.5637 20.6005 64.6992 20.6378 63.8347 20.675C62.9707 20.6642 62.1065 20.6775 61.242 20.7147L61.2787 17.7629L63.5106 17.7907C65.5744 17.8164 67.0647 17.643 67.9814 17.2704C68.9467 16.8504 69.6963 16.4037 70.2303 15.9303L72.3181 15.9563L71.9072 43.1693C71.8977 43.9372 71.8602 45.0168 71.7949 46.4081C71.7296 47.7994 71.6429 48.9744 71.535 49.9331C72.3995 49.8959 73.264 49.8587 74.1286 49.8214C74.9931 49.7842 75.8576 49.747 76.7222 49.7097L76.6845 52.7335L66.3893 52.6053C66.2555 51.7876 66.145 51.0181 66.058 50.297C66.019 49.5764 65.9794 48.9039 65.9391 48.2793C64.4327 49.7487 62.6167 51.0222 60.4911 52.0998C58.3662 53.1294 56.2477 53.6311 54.1359 53.6048ZM95.5816 54.1209C93.1818 54.091 91.0502 53.7284 89.1867 53.0332C87.3226 52.3859 85.7957 51.6468 84.6059 50.816L84.8625 53.3394L81.8388 53.3017L81.561 40.9133L83.7928 40.9411C83.8643 42.9101 84.3942 44.6929 85.3823 46.2893C86.3711 47.8377 87.6521 49.0538 89.2252 49.9374C90.7983 50.8211 92.4968 51.2743 94.3207 51.297C95.5686 51.3125 96.7949 51.1358 97.9996 50.7667C99.2049 50.3497 100.221 49.7383 101.047 48.9325C101.873 48.0788 102.295 47.0039 102.311 45.708C102.328 44.3641 101.933 43.2551 101.128 42.381C100.372 41.4596 99.3496 40.6548 98.0621 39.9667C96.7745 39.2786 95.3904 38.6373 93.9097 38.0428C91.9994 37.251 90.0897 36.4111 88.1806 35.5233C86.3201 34.5881 84.7749 33.3927 83.5449 31.9373C82.3155 30.4339 81.7158 28.4823 81.7457 26.0824C81.7582 25.0745 81.964 23.973 82.3629 22.7779C82.7618 21.5827 83.4238 20.4629 84.3489 19.4183C85.2745 18.3258 86.5335 17.4534 88.1257 16.8012C89.7186 16.1009 91.7389 15.7661 94.1867 15.7965C95.4826 15.8127 96.9198 16.0466 98.4983 16.4983C100.077 16.95 101.603 17.785 103.075 19.0035L102.966 16.2659L105.989 16.3035L105.832 28.9026L103.529 28.8739C103.454 27.1928 103.09 25.5802 102.437 24.0359C101.785 22.4437 100.817 21.1355 99.5334 20.1115C98.2507 19.0394 96.5774 18.4905 94.5135 18.4648C92.3057 18.4373 90.5709 18.9678 89.3093 20.0561C88.0476 21.1445 87.4079 22.4087 87.3899 23.8485C87.3714 25.3364 87.8118 26.59 88.7112 27.6093C89.6592 28.5812 90.8726 29.4363 92.3515 30.1748C93.8305 30.9133 95.4057 31.629 97.0772 32.3218C98.8915 33.1125 100.657 33.9745 102.373 34.908C104.09 35.8414 105.491 37.011 106.578 38.4166C107.665 39.7742 108.195 41.533 108.168 43.6928C108.139 46.0926 107.49 48.0767 106.222 49.645C105.003 51.214 103.428 52.3465 101.5 53.0425C99.6181 53.7871 97.6455 54.1466 95.5816 54.1209ZM113.11 51.0269C114.598 51.0454 115.634 50.6983 116.219 49.9855C116.804 49.2248 117.153 48.197 117.265 46.9023C117.378 45.5596 117.445 44.0243 117.467 42.2965L117.671 25.8817C117.681 25.1138 117.714 24.3942 117.77 23.7228C117.827 23.0035 117.909 22.1644 118.017 21.2057C117.153 21.2429 116.288 21.2802 115.424 21.3174C114.607 21.3552 113.767 21.3928 112.902 21.43L112.94 18.4063C115.052 18.4326 116.685 18.3569 117.839 18.1792C118.993 18.0016 119.86 17.7724 120.44 17.4916C121.067 17.2114 121.551 16.9054 121.891 16.5736L123.979 16.5996L123.617 45.6853C123.605 46.6452 123.57 47.5089 123.513 48.2762C123.504 48.9962 123.422 49.7632 123.268 50.5774C124.037 50.5389 124.781 50.5242 125.501 50.5332C126.269 50.4947 127.038 50.4563 127.806 50.4178L127.77 53.3696L113.083 53.1867L113.11 51.0269ZM120.612 9.42909C119.604 9.41654 118.721 8.99752 117.964 8.17202C117.206 7.34652 116.834 6.33381 116.849 5.13391C116.864 3.934 117.261 2.93086 118.039 2.12448C118.866 1.27071 119.783 0.850101 120.791 0.862652C121.895 0.876399 122.801 1.31972 123.511 2.19262C124.268 3.01812 124.64 4.03082 124.625 5.23073C124.61 6.43064 124.189 7.43348 123.363 8.23925C122.585 9.04563 121.668 9.44224 120.612 9.42909Z" fill="url(#paint0_angular)"/>
</g>
<defs>
<filter id="filter0_d" x="0.804504" y="0.419922" width="135.002" height="61.7024" filterUnits="userSpaceOnUse" color-interpolation-filters="sRGB">
<feFlood flood-opacity="0" result="BackgroundImageFix"/>
<feColorMatrix in="SourceAlpha" type="matrix" values="0 0 0 0 0 0 0 0 0 0 0 0 0 0 0 0 0 0 127 0" result="hardAlpha"/>
<feOffset dx="6" dy="6"/>
<feGaussianBlur stdDeviation="1"/>
<feColorMatrix type="matrix" values="0 0 0 0 0 0 0 0 0 0 0 0 0 0 0 0 0 0 0.13 0"/>
<feBlend mode="normal" in2="BackgroundImageFix" result="effect1_dropShadow"/>
<feBlend mode="normal" in="SourceGraphic" in2="effect1_dropShadow" result="shape"/>
</filter>
<radialGradient id="paint0_angular" cx="0" cy="0" r="1" gradientUnits="userSpaceOnUse" gradientTransform="translate(63.6287 26.5056) rotate(90.7134) scale(124.937 207.089)">
<stop stop-color="#5E35B1" stop-opacity="0.86"/>
<stop offset="1" stop-color="#B39DDB" stop-opacity="0.86"/>
</radialGradient>
</defs>
</svg>
