<svg width="126" height="65" viewBox="0 0 126 65" fill="none" xmlns="http://www.w3.org/2000/svg">
<g filter="url(#filter0_d)">
<path d="M15.5622 56.3557C12.5385 56.3181 9.88123 55.7569 7.59056 54.6723C5.29989 53.5877 3.54225 52.1017 2.31766 50.2143C1.09366 48.2789 0.497205 46.0633 0.528284 43.5675C0.554582 41.4557 1.01046 39.5412 1.8959 37.8241C2.82935 36.1076 4.04629 34.7546 5.54673 33.7652C7.09516 32.7764 8.7813 32.2934 10.6052 32.3161C12.285 32.337 13.6955 32.7866 14.8367 33.6649C15.9784 34.4952 16.684 35.6561 16.9535 37.1475C14.4577 37.1165 12.4575 37.7636 10.9529 39.089C9.44884 40.3663 8.68278 42.1329 8.65469 44.3888C8.62899 46.4526 9.23232 48.1162 10.4647 49.3797C11.697 50.6431 13.3452 51.2877 15.409 51.3134C17.9528 51.3451 20.0511 50.5311 21.7039 48.8716C23.4053 47.1647 24.2721 45.0153 24.3044 42.4235C24.3325 40.1677 23.7351 38.024 22.5123 35.9927C21.2895 33.9613 19.4481 31.4902 16.9882 28.5793C14.4334 25.5713 12.4973 23.003 11.1797 20.8744C9.91067 18.6984 9.29201 16.3385 9.32368 13.7947C9.35476 11.2989 10.0785 9.07576 11.4949 7.12524C12.9119 5.12673 14.8515 3.56676 17.3136 2.44533C19.7758 1.3239 22.5427 0.782312 25.6145 0.820563C29.5022 0.868975 32.5866 1.81945 34.8677 3.672C37.1968 5.52515 38.3422 7.9876 38.304 11.0594C38.2789 13.0752 37.7546 14.7008 36.7311 15.9362C35.7077 17.1715 34.38 17.779 32.7481 17.7587C30.9243 17.736 29.4697 16.9738 28.3843 15.4722C29.3046 14.8116 30.0356 13.9326 30.5773 12.8353C31.119 11.7379 31.3973 10.5893 31.4122 9.38942C31.4314 7.85354 30.9907 6.62396 30.0901 5.70067C29.1895 4.77739 27.9473 4.30588 26.3634 4.28616C24.4435 4.26225 22.851 4.93847 21.5858 6.31483C20.3691 7.64378 19.7477 9.36418 19.7214 11.476C19.6975 13.3959 20.227 15.2026 21.31 16.8962C22.3936 18.5418 24.0952 20.6752 26.4147 23.2963C28.3089 25.384 29.8226 27.179 30.956 28.6812C32.1374 30.1841 33.1238 31.9245 33.9152 33.9025C34.7552 35.8331 35.1612 37.9263 35.1331 40.1821C35.0949 43.2539 34.1963 46.0269 32.4373 48.5012C30.7264 50.9761 28.3741 52.915 25.3804 54.3178C22.4347 55.7212 19.1619 56.4005 15.5622 56.3557ZM45.0412 55.8587C42.7374 55.83 40.8745 55.0868 39.4525 53.629C38.0786 52.1717 37.4095 50.0032 37.4454 47.1235C37.4603 45.9236 37.6717 44.3661 38.0796 42.451L43.263 19.4018L53.6302 19.5309L48.1418 43.9444C47.9888 44.6626 47.9085 45.3336 47.9007 45.9576C47.8762 47.9254 48.5839 48.9183 50.0238 48.9362C51.3677 48.953 52.5264 48.4154 53.5001 47.3234C54.4744 46.1834 55.2618 44.6331 55.8622 42.6724L61.0456 19.6232L71.4128 19.7523L65.9244 44.1658C65.7235 44.8834 65.6179 45.6501 65.6077 46.4661C65.5958 47.426 65.8031 48.1246 66.2297 48.562C66.7049 48.9519 67.4704 49.1535 68.5263 49.1666C69.8702 49.1834 71.0293 48.6218 72.0036 47.4818C73.0259 46.3424 73.8369 44.8164 74.4368 42.9037L77.4605 42.9414C75.6201 48.1029 73.3684 51.6031 70.7053 53.4421C68.0908 55.2337 65.4636 56.113 62.8238 56.0802C60.76 56.0545 59.1113 55.4579 57.8777 54.2904C56.6921 53.1236 55.9934 51.4108 55.7815 49.1519C54.1168 51.7714 52.3665 53.5498 50.5307 54.487C48.7429 55.4248 46.913 55.882 45.0412 55.8587ZM81.3899 56.3114C79.0861 56.2827 77.1476 55.8265 75.5745 54.9428C74.002 54.0112 72.8404 52.8446 72.0898 51.4432C71.3398 49.9937 70.9744 48.5011 70.9935 46.9652C71.0132 45.3813 71.4142 44.0182 72.1965 42.8758C72.9314 41.6849 73.8301 40.832 74.8926 40.3172C76.8063 36.9808 78.4803 33.6174 79.9146 30.227C81.3495 26.7886 82.7157 23.0853 84.0133 19.1171L94.6864 17.8099C94.8498 23.9564 95.175 30.609 95.6619 37.7676C95.8661 40.6504 95.96 42.7397 95.9439 44.0356C95.9302 45.1395 95.8228 46.0503 95.6219 46.7678C97.8938 45.5 99.6366 44.3216 100.85 43.2327L103.874 43.2703C100.758 46.7838 97.049 49.7378 92.7468 52.1324C91.3364 53.603 89.5948 54.6854 87.522 55.3796C85.4978 56.0265 83.4538 56.3371 81.3899 56.3114ZM79.1569 50.5951C80.9328 50.6172 82.4273 50.1078 83.6403 49.0668C84.8534 48.0258 85.4745 46.3294 85.5038 43.9776C85.5218 42.5377 85.4029 40.5201 85.1472 37.9247C84.7353 32.4472 84.4691 28.7716 84.3484 26.8979C83.1493 30.6753 81.1489 35.1867 78.3474 40.4322C79.4442 41.0219 79.9857 41.8688 79.9719 42.9727C79.9606 43.8846 79.6384 44.6966 79.0055 45.4088C78.4206 46.1216 77.6722 46.4723 76.7602 46.4609C75.7523 46.4484 75.1082 46.1284 74.828 45.5008C74.8065 47.2287 75.1266 48.5048 75.7884 49.3291C76.4982 50.154 77.6211 50.576 79.1569 50.5951ZM112.118 16.3709C110.534 16.3511 109.197 15.7825 108.107 14.6648C107.017 13.5471 106.481 12.1964 106.501 10.6125C106.521 9.02861 107.089 7.69159 108.207 6.60142C109.325 5.46325 110.676 4.90403 112.26 4.92375C113.844 4.94348 115.181 5.53617 116.271 6.70183C117.409 7.82009 117.968 9.17115 117.948 10.755C117.928 12.3389 117.336 13.6756 116.17 14.7652C115.052 15.8554 113.702 16.3906 112.118 16.3709ZM106.72 56.6268C104.416 56.5981 102.553 55.8548 101.131 54.397C99.7575 52.9398 99.0885 50.7713 99.1243 47.8915C99.1393 46.6916 99.3507 45.1341 99.7586 43.2191L104.942 20.1698L115.309 20.2989L109.821 44.7125C109.62 45.43 109.514 46.1968 109.504 47.0127C109.492 47.9726 109.699 48.6713 110.126 49.1086C110.601 49.4986 111.367 49.7001 112.423 49.7133C113.287 49.724 114.056 49.5896 114.732 49.31C114.51 51.7074 113.623 53.5445 112.071 54.8213C110.568 56.0506 108.784 56.6525 106.72 56.6268Z" fill="url(#paint0_angular)"/>
</g>
<defs>
<filter id="filter0_d" x="0.52713" y="0.818848" width="125.422" height="63.8089" filterUnits="userSpaceOnUse" color-interpolation-filters="sRGB">
<feFlood flood-opacity="0" result="BackgroundImageFix"/>
<feColorMatrix in="SourceAlpha" type="matrix" values="0 0 0 0 0 0 0 0 0 0 0 0 0 0 0 0 0 0 127 0" result="hardAlpha"/>
<feOffset dx="6" dy="6"/>
<feGaussianBlur stdDeviation="1"/>
<feColorMatrix type="matrix" values="0 0 0 0 0.45098 0 0 0 0 0.341176 0 0 0 0 0.760784 0 0 0 0.13 0"/>
<feBlend mode="normal" in2="BackgroundImageFix" result="effect1_dropShadow"/>
<feBlend mode="normal" in="SourceGraphic" in2="effect1_dropShadow" result="shape"/>
</filter>
<radialGradient id="paint0_angular" cx="0" cy="0" r="1" gradientUnits="userSpaceOnUse" gradientTransform="translate(56.6287 28.5056) rotate(90.7134) scale(124.937 207.089)">
<stop stop-color="#E8E2F2" stop-opacity="0.86"/>
<stop offset="1" stop-color="#E0E0F3" stop-opacity="0.86"/>
</radialGradient>
</defs>
</svg>
